<svg width="200" height="200" viewBox="0 0 200 200" fill="none" xmlns="http://www.w3.org/2000/svg">
<rect x="54.5454" width="90.9091" height="18.1818" fill="#1E0F21"/>
<rect x="145.455" y="18.1818" width="18.1818" height="18.1818" fill="#1E0F21"/>
<rect x="163.636" y="36.3636" width="18.1818" height="18.1818" fill="#1E0F21"/>
<rect x="181.818" y="54.5455" width="18.1818" height="90.9091" fill="#1E0F21"/>
<rect x="163.636" y="145.455" width="18.1818" height="18.1818" fill="#1E0F21"/>
<rect x="145.455" y="163.636" width="18.1818" height="18.1818" fill="#1E0F21"/>
<rect x="54.5454" y="181.818" width="90.9091" height="18.1818" fill="#1E0F21"/>
<rect x="36.3638" y="163.636" width="18.1818" height="18.1818" fill="#1E0F21"/>
<rect x="18.1821" y="145.455" width="18.1818" height="18.1818" fill="#1E0F21"/>
<rect y="54.5455" width="18.1818" height="90.9091" fill="#1E0F21"/>
<rect x="18.1821" y="36.3636" width="18.1818" height="18.1818" fill="#1E0F21"/>
<rect x="36.3638" y="18.1818" width="18.1818" height="18.1818" fill="#1E0F21"/>
<rect x="90.9092" y="54.5455" width="18.1818" height="18.1818" fill="#1E0F21"/>
<rect x="90.9092" y="36.3636" width="18.1818" height="18.1818" fill="#1E0F21"/>
<rect x="109.091" y="54.5455" width="18.1818" height="18.1818" fill="#1E0F21"/>
<rect x="72.7271" y="72.7273" width="18.1818" height="18.1818" fill="#1E0F21"/>
<rect x="72.7271" y="54.5455" width="18.1818" height="18.1818" fill="#1E0F21"/>
<rect x="90.9092" y="90.9091" width="18.1818" height="18.1818" fill="#1E0F21"/>
<rect x="109.091" y="109.091" width="18.1818" height="18.1818" fill="#1E0F21"/>
<rect x="72.7271" y="127.273" width="54.5455" height="18.1818" fill="#1E0F21"/>
<rect x="90.9092" y="145.455" width="18.1818" height="18.1818" fill="#1E0F21"/>
</svg>
