<svg width="120" height="120" viewBox="0 0 120 120" fill="none" xmlns="http://www.w3.org/2000/svg">
<style>
  rect {
    stroke: #14254C
  }
  path {
      fill: #14254C;
  }
  @media (prefers-color-scheme: dark) {
      path { fill: white; }
      rect {
        stroke: white;
      }
  }
</style>
<rect x="1" y="1" width="118" height="118" stroke-width="8"/>
<path d="M24.0378 71.3176C24.0378 73.3006 24.0697 75.0327 24.1336 76.5141C24.1976 77.9955 24.2742 79.2727 24.3637 80.3459C24.4532 81.419 24.5682 82.3171 24.7088 83.0403C24.8494 83.7635 24.9964 84.3701 25.1498 84.86V85H15.9468V84.86C16.1002 84.3701 16.2472 83.7635 16.3878 83.0403C16.5284 82.3171 16.6434 81.419 16.7329 80.3459C16.8223 79.2727 16.899 78.0013 16.9629 76.5316C17.0269 75.0619 17.0588 73.3239 17.0588 71.3176V48.5371C17.0588 46.5542 17.0269 44.822 16.9629 43.3406C16.899 41.8593 16.8223 40.582 16.7329 39.5089C16.6434 38.4358 16.5284 37.5318 16.3878 36.7969C16.2472 36.0621 16.1002 35.4497 15.9468 34.9598V34.8198L17.5573 34.9598C18.043 35.0064 18.5863 35.0356 19.187 35.0473C19.7878 35.0589 20.4077 35.0648 21.0468 35.0648C22.0438 35.0648 23.3923 34.954 25.0923 34.7323C26.7923 34.5107 28.9588 34.3999 31.5919 34.3999C34.0461 34.3999 36.3149 34.7032 38.3984 35.3097C40.4818 35.9163 42.2905 36.8028 43.8243 37.9692C45.3581 39.1356 46.5533 40.5645 47.4097 42.2559C48.2661 43.9472 48.6942 45.866 48.6942 48.0122C48.6942 49.6919 48.4578 51.2491 47.9848 52.6838C47.5119 54.1185 46.8473 55.4191 45.9909 56.5855C45.1345 57.752 44.1055 58.7843 42.904 59.6824C41.7025 60.5806 40.3604 61.3329 38.8777 61.9395L52.3371 79.1911C53.0018 80.0543 53.6217 80.8008 54.1969 81.4307C54.7721 82.0605 55.3217 82.6029 55.8458 83.0578C56.3698 83.5127 56.8747 83.886 57.3604 84.1776C57.8462 84.4692 58.3447 84.6967 58.8559 84.86V85H47.7739C47.6973 84.5567 47.448 83.9677 47.0262 83.2328C46.6044 82.4979 46.1123 81.7689 45.5499 81.0457L31.9754 63.5842C31.3874 63.6308 30.7995 63.6716 30.2115 63.7066C29.6235 63.7416 29.0228 63.7591 28.4092 63.7591C27.6934 63.7591 26.9712 63.7358 26.2427 63.6891C25.5141 63.6425 24.7791 63.5608 24.0378 63.4442V71.3176ZM24.0378 60.7147C24.728 60.8547 25.431 60.9538 26.1468 61.0122C26.8626 61.0705 27.5528 61.0997 28.2175 61.0997C30.1348 61.0997 31.8859 60.8372 33.4709 60.3123C35.0559 59.7874 36.4044 58.9884 37.5164 57.9153C38.6284 56.8422 39.4912 55.5066 40.1047 53.9086C40.7183 52.3105 41.0251 50.4384 41.0251 48.2922C41.0251 46.5425 40.8078 44.9562 40.3732 43.5331C39.9386 42.1101 39.2931 40.9028 38.4367 39.9113C37.5803 38.9198 36.5002 38.15 35.1965 37.6018C33.8927 37.0535 32.3716 36.7794 30.6333 36.7794C28.8694 36.7794 27.4634 36.8611 26.4152 37.0244C25.3671 37.1877 24.5746 37.3627 24.0378 37.5493V60.7147ZM83.1673 60.9247V71.3176C83.1673 73.3006 83.1929 75.0327 83.244 76.5141C83.2951 77.9955 83.3718 79.2727 83.4741 80.3459C83.5763 81.419 83.6977 82.3171 83.8383 83.0403C83.9789 83.7635 84.1259 84.3701 84.2793 84.86V85H75.0763V84.86C75.2297 84.3701 75.3767 83.7635 75.5173 83.0403C75.6579 82.3171 75.7729 81.419 75.8624 80.3459C75.9519 79.2727 76.0285 77.9955 76.0925 76.5141C76.1564 75.0327 76.1883 73.3006 76.1883 71.3176V61.6245L59.0477 40.3487C58.4597 39.6255 57.8781 38.9607 57.3029 38.3541C56.7277 37.7476 56.1845 37.2168 55.6732 36.7619C55.1619 36.307 54.7018 35.9279 54.2928 35.6247C53.8837 35.3214 53.5642 35.0998 53.3341 34.9598V34.8198H64.9529C64.9529 35.3564 65.2022 36.237 65.7007 37.4618C66.1992 38.6866 67.1003 40.1271 68.4041 41.7835L80.9816 57.4954L93.2906 41.0836C93.7252 40.5004 94.1598 39.9055 94.5944 39.2989C95.029 38.6924 95.4252 38.1092 95.7831 37.5493C96.141 36.9894 96.4286 36.4762 96.6459 36.0096C96.8632 35.543 96.9718 35.1464 96.9718 34.8198H104.449V34.9598C103.887 35.403 103.133 36.0621 102.187 36.9369C101.241 37.8117 100.218 38.9723 99.1192 40.4187L83.1673 60.9247Z"/>
</svg>
