<svg width="91" height="29" viewBox="0 0 91 29" fill="none" xmlns="http://www.w3.org/2000/svg">
<path d="M2.48298 1.69728C3.83733 1.69728 4.96596 2.8042 4.96596 4.13251C4.96596 5.49771 3.79971 6.56774 2.48298 6.56774C1.09101 6.56774 0 5.49771 0 4.13251C0 2.7673 1.16625 1.69728 2.48298 1.69728ZM0.790039 10.4051H4.17592V27.8944H0.790039V10.4051Z" fill="black"/>
<path d="M23.6724 0H27.0583V27.8944H23.6724V25.3854H23.5971C22.2804 27.2672 19.9103 28.3372 17.3897 28.3372C14.7186 28.3003 12.5366 27.4517 10.8813 25.7175C9.18832 23.9833 8.36066 21.8064 8.32304 19.1497C8.32304 16.4562 9.1507 14.2793 10.8436 12.582C12.499 10.8847 14.681 9.99919 17.3897 9.9623C19.835 9.9623 22.2804 11.0323 23.5971 12.9141H23.6724V0ZM11.9346 19.1497C11.9346 22.7288 14.3048 25.2009 17.8035 25.2378C21.3775 25.2378 23.6724 22.8026 23.6724 19.1497C23.6724 15.5707 21.4151 13.0986 17.7659 13.0617C14.2671 13.0617 11.9346 15.5707 11.9346 19.1497Z" fill="black"/>
<path d="M40.426 9.9623C43.0595 9.9623 45.2791 10.8478 47.1226 12.6189C48.966 14.4269 49.8689 16.6038 49.9065 19.1497C49.9065 21.7326 49.0036 23.9095 47.1602 25.6437C45.3167 27.3779 43.0971 28.3003 40.426 28.3372C37.8302 28.3372 35.6105 27.4517 33.7671 25.6806C31.9237 23.9095 30.9832 21.7326 30.9456 19.1497C30.9456 16.6038 31.8485 14.4638 33.6919 12.6927C35.4977 10.9216 37.7549 9.99919 40.426 9.9623ZM34.5572 19.1497C34.5572 22.7288 36.9273 25.2009 40.426 25.2378C44 25.2378 46.2573 22.8026 46.2949 19.1497C46.2949 15.5707 44.0376 13.0986 40.3884 13.0617C36.8144 13.0617 34.5572 15.6445 34.5572 19.1497Z" fill="black"/>
<path d="M53.772 0H57.1579V18.0059L64.8702 10.4051H69.5728L61.221 18.3749L70.25 27.8944H65.4345L57.1579 18.8177V27.8944H53.772V0Z" fill="black"/>
<path d="M81.5195 9.9623C84.153 9.9623 86.3726 10.8478 88.2161 12.6189C90.0595 14.4269 90.9624 16.6038 91 19.1497C91 21.7326 90.0971 23.9095 88.2537 25.6437C86.4103 27.3779 84.1906 28.3003 81.5195 28.3372C78.9237 28.3372 76.7041 27.4517 74.8606 25.6806C73.0172 23.9095 72.0767 21.7326 72.0391 19.1497C72.0391 16.6038 72.942 14.4638 74.7854 12.6927C76.5912 10.9216 78.8484 9.99919 81.5195 9.9623ZM75.6507 19.1497C75.6507 22.7288 78.0208 25.2009 81.5195 25.2378C85.0935 25.2378 87.3508 22.8026 87.3884 19.1497C87.3884 15.5707 85.1311 13.0986 81.4819 13.0617C77.9079 13.0617 75.6507 15.6445 75.6507 19.1497Z" fill="black"/>
</svg>
