<svg width="200" height="200" viewBox="0 0 200 200" fill="none" xmlns="http://www.w3.org/2000/svg">
<rect x="83.3335" width="33.3333" height="16.6667" fill="#1E0F21"/>
<rect x="16.6665" y="183.333" width="166.667" height="16.6667" fill="#1E0F21"/>
<rect x="50" y="166.667" width="16.6667" height="16.6667" fill="#1E0F21"/>
<rect x="133.333" y="166.667" width="16.6667" height="16.6667" fill="#1E0F21"/>
<rect x="183.333" y="150" width="16.6667" height="33.3333" fill="#1E0F21"/>
<rect y="150" width="16.6667" height="33.3333" fill="#1E0F21"/>
<rect x="16.6665" y="133.333" width="16.6667" height="16.6667" fill="#1E0F21"/>
<rect x="166.667" y="133.333" width="16.6667" height="16.6667" fill="#1E0F21"/>
<rect x="33.3335" y="116.667" width="133.333" height="16.6667" fill="#1E0F21"/>
<rect x="133.333" y="33.3333" width="16.6667" height="33.3333" fill="#1E0F21"/>
<rect x="50" y="33.3333" width="16.6667" height="33.3333" fill="#1E0F21"/>
<rect x="83.3335" y="83.3333" width="33.3333" height="16.6667" fill="#1E0F21"/>
<rect x="116.667" y="66.6667" width="16.6667" height="16.6667" fill="#1E0F21"/>
<rect x="116.667" y="16.6667" width="16.6667" height="16.6667" fill="#1E0F21"/>
<rect x="66.6665" y="16.6667" width="16.6667" height="16.6667" fill="#1E0F21"/>
<rect x="66.6665" y="66.6667" width="16.6667" height="16.6667" fill="#1E0F21"/>
</svg>
