<?xml version="1.0" encoding="UTF-8"?>
<svg id="Calque_1" data-name="Calque 1" xmlns="http://www.w3.org/2000/svg" viewBox="0 0 294.28 233.1">
  <circle cx="18.25" cy="24.71" r="9.13" fill="#102c45"/>
  <circle cx="82.7" cy="24.71" r="9.13" transform="translate(-3.46 19.66) rotate(-13.28)" fill="#102c45"/>
  <circle cx="147.14" cy="24.71" r="9.13" fill="#102c45"/>
  <circle cx="211.59" cy="24.71" r="9.13" transform="translate(-.02 49.27) rotate(-13.28)" fill="#102c45"/>
  <circle cx="276.03" cy="24.71" r="9.13" fill="#102c45"/>
  <circle cx="18.25" cy="85.93" r="9.13" fill="#102c45"/>
  <circle cx="82.7" cy="85.93" r="9.13" transform="translate(-36.54 83.64) rotate(-45)" fill="#102c45"/>
  <circle cx="147.14" cy="85.93" r="9.13" fill="#102c45"/>
  <circle cx="211.59" cy="85.93" r="9.13" transform="translate(1.21 174.78) rotate(-45)" fill="#102c45"/>
  <circle cx="276.03" cy="85.93" r="9.13" fill="#102c45"/>
  <circle cx="18.25" cy="147.15" r="9.13" fill="#102c45"/>
  <circle cx="82.7" cy="147.15" r="9.13" transform="translate(-31.6 22.94) rotate(-13.28)" fill="#102c45"/>
  <circle cx="147.14" cy="147.15" r="9.13" fill="#102c45"/>
  <circle cx="211.59" cy="147.15" r="9.13" transform="translate(-28.15 52.55) rotate(-13.28)" fill="#102c45"/>
  <circle cx="276.03" cy="147.15" r="9.13" fill="#102c45"/>
  <circle cx="18.25" cy="208.4" r="9.13" fill="#102c45"/>
  <circle cx="82.7" cy="208.4" r="9.13" transform="translate(-123.14 119.51) rotate(-45)" fill="#102c45"/>
  <circle cx="147.14" cy="208.4" r="9.13" fill="#102c45"/>
  <circle cx="211.59" cy="208.4" r="9.13" transform="translate(-85.39 210.65) rotate(-45)" fill="#102c45"/>
  <circle cx="276.03" cy="208.4" r="9.13" fill="#102c45"/>
</svg>